<mxfile host="app.diagrams.net" modified="2022-07-20T12:46:34.520Z" agent="5.0 (Windows NT 10.0; Win64; x64) AppleWebKit/537.36 (KHTML, like Gecko) Chrome/103.0.5060.114 Safari/537.36" etag="lcFgZKC8r7CKiPllN02k" version="20.1.3" type="github">
  <diagram id="YzujsNq1Css8Sywb9bI2" name="Page-1">
    <mxGraphModel dx="1852" dy="1660" grid="1" gridSize="10" guides="1" tooltips="1" connect="1" arrows="1" fold="1" page="1" pageScale="1" pageWidth="850" pageHeight="1100" math="0" shadow="0">
      <root>
        <mxCell id="0" />
        <mxCell id="1" parent="0" />
        <mxCell id="rVb7NmRtOqhLB956JAOC-2" value="End Users" style="rounded=0;whiteSpace=wrap;html=1;" parent="1" vertex="1">
          <mxGeometry x="40" y="270" width="120" height="60" as="geometry" />
        </mxCell>
        <mxCell id="rVb7NmRtOqhLB956JAOC-4" value="Authorities" style="rounded=0;whiteSpace=wrap;html=1;" parent="1" vertex="1">
          <mxGeometry x="340" y="270" width="120" height="60" as="geometry" />
        </mxCell>
        <mxCell id="rVb7NmRtOqhLB956JAOC-5" value="Server" style="rounded=1;whiteSpace=wrap;html=1;" parent="1" vertex="1">
          <mxGeometry x="200" y="-100" width="120" height="60" as="geometry" />
        </mxCell>
        <mxCell id="rVb7NmRtOqhLB956JAOC-6" value="REST API" style="ellipse;whiteSpace=wrap;html=1;aspect=fixed;" parent="1" vertex="1">
          <mxGeometry x="220" y="80" width="80" height="80" as="geometry" />
        </mxCell>
        <mxCell id="rVb7NmRtOqhLB956JAOC-7" value="" style="endArrow=classic;html=1;rounded=0;exitX=0.25;exitY=0;exitDx=0;exitDy=0;entryX=0.073;entryY=0.748;entryDx=0;entryDy=0;entryPerimeter=0;" parent="1" source="rVb7NmRtOqhLB956JAOC-2" target="rVb7NmRtOqhLB956JAOC-6" edge="1">
          <mxGeometry width="50" height="50" relative="1" as="geometry">
            <mxPoint x="420" y="200" as="sourcePoint" />
            <mxPoint x="470" y="150" as="targetPoint" />
          </mxGeometry>
        </mxCell>
        <mxCell id="rVb7NmRtOqhLB956JAOC-8" value="" style="endArrow=classic;html=1;rounded=0;exitX=0.276;exitY=0.933;exitDx=0;exitDy=0;exitPerimeter=0;entryX=0.559;entryY=0.021;entryDx=0;entryDy=0;entryPerimeter=0;" parent="1" source="rVb7NmRtOqhLB956JAOC-6" target="rVb7NmRtOqhLB956JAOC-2" edge="1">
          <mxGeometry width="50" height="50" relative="1" as="geometry">
            <mxPoint x="280" y="230" as="sourcePoint" />
            <mxPoint x="330" y="180" as="targetPoint" />
          </mxGeometry>
        </mxCell>
        <mxCell id="rVb7NmRtOqhLB956JAOC-9" value="Information sending, assistance requests" style="text;html=1;strokeColor=none;fillColor=none;align=center;verticalAlign=middle;whiteSpace=wrap;rounded=0;rotation=-40;" parent="1" vertex="1">
          <mxGeometry x="70" y="170" width="134.68" height="30" as="geometry" />
        </mxCell>
        <mxCell id="rVb7NmRtOqhLB956JAOC-11" value="Authorities&#39; Responses, Assistance Status" style="text;html=1;strokeColor=none;fillColor=none;align=center;verticalAlign=middle;whiteSpace=wrap;rounded=0;rotation=-40;" parent="1" vertex="1">
          <mxGeometry x="130" y="200" width="130" height="30" as="geometry" />
        </mxCell>
        <mxCell id="rVb7NmRtOqhLB956JAOC-13" value="" style="endArrow=classic;html=1;rounded=0;exitX=0.353;exitY=0.007;exitDx=0;exitDy=0;exitPerimeter=0;entryX=0.402;entryY=1.057;entryDx=0;entryDy=0;entryPerimeter=0;" parent="1" source="rVb7NmRtOqhLB956JAOC-6" target="rVb7NmRtOqhLB956JAOC-5" edge="1">
          <mxGeometry width="50" height="50" relative="1" as="geometry">
            <mxPoint x="250" y="100" as="sourcePoint" />
            <mxPoint x="300" y="50" as="targetPoint" />
          </mxGeometry>
        </mxCell>
        <mxCell id="rVb7NmRtOqhLB956JAOC-14" value="" style="endArrow=classic;html=1;rounded=0;exitX=0.564;exitY=0.995;exitDx=0;exitDy=0;exitPerimeter=0;entryX=0.625;entryY=0;entryDx=0;entryDy=0;entryPerimeter=0;" parent="1" source="rVb7NmRtOqhLB956JAOC-5" target="rVb7NmRtOqhLB956JAOC-6" edge="1">
          <mxGeometry width="50" height="50" relative="1" as="geometry">
            <mxPoint x="250" y="100" as="sourcePoint" />
            <mxPoint x="300" y="50" as="targetPoint" />
          </mxGeometry>
        </mxCell>
        <mxCell id="rVb7NmRtOqhLB956JAOC-15" value="Data to be Stored" style="text;html=1;strokeColor=none;fillColor=none;align=center;verticalAlign=middle;whiteSpace=wrap;rounded=0;" parent="1" vertex="1">
          <mxGeometry x="180" y="20" width="60" height="30" as="geometry" />
        </mxCell>
        <mxCell id="rVb7NmRtOqhLB956JAOC-16" value="Data to be Retrieved" style="text;html=1;strokeColor=none;fillColor=none;align=center;verticalAlign=middle;whiteSpace=wrap;rounded=0;" parent="1" vertex="1">
          <mxGeometry x="280" y="20" width="60" height="30" as="geometry" />
        </mxCell>
        <mxCell id="rVb7NmRtOqhLB956JAOC-17" value="" style="endArrow=classic;html=1;rounded=0;entryX=0.782;entryY=0.95;entryDx=0;entryDy=0;entryPerimeter=0;exitX=0.354;exitY=-0.033;exitDx=0;exitDy=0;exitPerimeter=0;" parent="1" source="rVb7NmRtOqhLB956JAOC-4" target="rVb7NmRtOqhLB956JAOC-6" edge="1">
          <mxGeometry width="50" height="50" relative="1" as="geometry">
            <mxPoint x="310" y="220" as="sourcePoint" />
            <mxPoint x="360" y="170" as="targetPoint" />
          </mxGeometry>
        </mxCell>
        <mxCell id="rVb7NmRtOqhLB956JAOC-18" value="" style="endArrow=classic;html=1;rounded=0;exitX=0.984;exitY=0.713;exitDx=0;exitDy=0;exitPerimeter=0;entryX=0.698;entryY=0.006;entryDx=0;entryDy=0;entryPerimeter=0;" parent="1" source="rVb7NmRtOqhLB956JAOC-6" target="rVb7NmRtOqhLB956JAOC-4" edge="1">
          <mxGeometry width="50" height="50" relative="1" as="geometry">
            <mxPoint x="310" y="220" as="sourcePoint" />
            <mxPoint x="360" y="170" as="targetPoint" />
          </mxGeometry>
        </mxCell>
        <mxCell id="rVb7NmRtOqhLB956JAOC-19" value="User information, assistance requests" style="text;html=1;strokeColor=none;fillColor=none;align=center;verticalAlign=middle;whiteSpace=wrap;rounded=0;rotation=47;" parent="1" vertex="1">
          <mxGeometry x="315" y="170" width="110" height="30" as="geometry" />
        </mxCell>
        <mxCell id="rVb7NmRtOqhLB956JAOC-20" value="Authorities&#39; Response" style="text;html=1;strokeColor=none;fillColor=none;align=center;verticalAlign=middle;whiteSpace=wrap;rounded=0;rotation=47;" parent="1" vertex="1">
          <mxGeometry x="290" y="210" width="60" height="30" as="geometry" />
        </mxCell>
        <mxCell id="rVb7NmRtOqhLB956JAOC-21" value="Third Party Developers" style="rounded=0;whiteSpace=wrap;html=1;" parent="1" vertex="1">
          <mxGeometry x="580" y="90" width="120" height="60" as="geometry" />
        </mxCell>
        <mxCell id="rVb7NmRtOqhLB956JAOC-22" value="" style="endArrow=classic;html=1;rounded=0;exitX=0.948;exitY=0.258;exitDx=0;exitDy=0;exitPerimeter=0;entryX=-0.001;entryY=0.166;entryDx=0;entryDy=0;entryPerimeter=0;" parent="1" source="rVb7NmRtOqhLB956JAOC-6" target="rVb7NmRtOqhLB956JAOC-21" edge="1">
          <mxGeometry width="50" height="50" relative="1" as="geometry">
            <mxPoint x="410" y="190" as="sourcePoint" />
            <mxPoint x="460" y="140" as="targetPoint" />
          </mxGeometry>
        </mxCell>
        <mxCell id="rVb7NmRtOqhLB956JAOC-24" value="" style="endArrow=classic;html=1;rounded=0;entryX=1;entryY=0.5;entryDx=0;entryDy=0;exitX=0;exitY=0.5;exitDx=0;exitDy=0;" parent="1" source="rVb7NmRtOqhLB956JAOC-21" target="rVb7NmRtOqhLB956JAOC-6" edge="1">
          <mxGeometry width="50" height="50" relative="1" as="geometry">
            <mxPoint x="390" y="180" as="sourcePoint" />
            <mxPoint x="440" y="130" as="targetPoint" />
          </mxGeometry>
        </mxCell>
        <mxCell id="rVb7NmRtOqhLB956JAOC-25" value="User information, assistance requests, authorities&#39; responses" style="text;html=1;strokeColor=none;fillColor=none;align=center;verticalAlign=middle;whiteSpace=wrap;rounded=0;" parent="1" vertex="1">
          <mxGeometry x="340" y="70" width="220" height="30" as="geometry" />
        </mxCell>
        <mxCell id="rVb7NmRtOqhLB956JAOC-26" value="User information, assistance requests, authorities&#39; responses" style="text;html=1;strokeColor=none;fillColor=none;align=center;verticalAlign=middle;whiteSpace=wrap;rounded=0;" parent="1" vertex="1">
          <mxGeometry x="340" y="120" width="220" height="30" as="geometry" />
        </mxCell>
        <mxCell id="rVb7NmRtOqhLB956JAOC-27" value="&lt;h1&gt;Context Diagram&lt;/h1&gt;&lt;p&gt;A context diagram outlines how external entities interact with an internal software system. It&#39;s primarily used to help businesses wrap their heads around the scope of a system. As a result, they can figure out how best to design a new system and its requirements or how to improve an existing system.&lt;/p&gt;" style="text;html=1;strokeColor=none;fillColor=none;spacing=5;spacingTop=-20;whiteSpace=wrap;overflow=hidden;rounded=0;" parent="1" vertex="1">
          <mxGeometry x="-100" y="-60" width="270" height="160" as="geometry" />
        </mxCell>
        <mxCell id="rVb7NmRtOqhLB956JAOC-28" value="End User" style="shape=umlActor;verticalLabelPosition=bottom;verticalAlign=top;html=1;outlineConnect=0;" parent="1" vertex="1">
          <mxGeometry x="980" y="-110" width="30" height="60" as="geometry" />
        </mxCell>
        <mxCell id="rVb7NmRtOqhLB956JAOC-29" value="Authorities" style="shape=umlActor;verticalLabelPosition=bottom;verticalAlign=top;html=1;outlineConnect=0;" parent="1" vertex="1">
          <mxGeometry x="1640" y="40" width="30" height="60" as="geometry" />
        </mxCell>
        <mxCell id="rVb7NmRtOqhLB956JAOC-31" value="" style="rounded=0;whiteSpace=wrap;html=1;" parent="1" vertex="1">
          <mxGeometry x="1080" y="-230" width="470" height="580" as="geometry" />
        </mxCell>
        <mxCell id="5PhB07DHEPZl7AxQc1l3-2" value="Third party&lt;br&gt;Developers" style="shape=umlActor;verticalLabelPosition=bottom;verticalAlign=top;html=1;outlineConnect=0;" vertex="1" parent="1">
          <mxGeometry x="980" y="130" width="30" height="60" as="geometry" />
        </mxCell>
        <mxCell id="5PhB07DHEPZl7AxQc1l3-8" value="Send information, location" style="ellipse;whiteSpace=wrap;html=1;" vertex="1" parent="1">
          <mxGeometry x="1120" y="-150" width="120" height="80" as="geometry" />
        </mxCell>
        <mxCell id="5PhB07DHEPZl7AxQc1l3-10" value="" style="endArrow=none;html=1;rounded=0;" edge="1" parent="1" source="rVb7NmRtOqhLB956JAOC-28" target="5PhB07DHEPZl7AxQc1l3-8">
          <mxGeometry width="50" height="50" relative="1" as="geometry">
            <mxPoint x="1030" y="-120" as="sourcePoint" />
            <mxPoint x="1340" y="-70" as="targetPoint" />
          </mxGeometry>
        </mxCell>
        <mxCell id="5PhB07DHEPZl7AxQc1l3-11" value="&lt;h1&gt;REST API&lt;/h1&gt;" style="text;html=1;strokeColor=none;fillColor=none;spacing=5;spacingTop=-20;whiteSpace=wrap;overflow=hidden;rounded=0;" vertex="1" parent="1">
          <mxGeometry x="1090" y="-220" width="120" height="40" as="geometry" />
        </mxCell>
        <mxCell id="5PhB07DHEPZl7AxQc1l3-12" value="Save user data for faster more reliable access" style="ellipse;whiteSpace=wrap;html=1;" vertex="1" parent="1">
          <mxGeometry x="1330" y="-180" width="120" height="80" as="geometry" />
        </mxCell>
        <mxCell id="5PhB07DHEPZl7AxQc1l3-15" value="&amp;lt;&amp;lt;include&amp;gt;&amp;gt;" style="text;html=1;strokeColor=none;fillColor=none;align=center;verticalAlign=middle;whiteSpace=wrap;rounded=0;rotation=-10;" vertex="1" parent="1">
          <mxGeometry x="1250" y="-155" width="60" height="30" as="geometry" />
        </mxCell>
        <mxCell id="5PhB07DHEPZl7AxQc1l3-16" value="Send request&amp;nbsp;&lt;br&gt;for help" style="ellipse;whiteSpace=wrap;html=1;" vertex="1" parent="1">
          <mxGeometry x="1120" y="-30" width="120" height="80" as="geometry" />
        </mxCell>
        <mxCell id="5PhB07DHEPZl7AxQc1l3-17" value="" style="endArrow=none;html=1;rounded=0;" edge="1" parent="1" source="rVb7NmRtOqhLB956JAOC-28" target="5PhB07DHEPZl7AxQc1l3-16">
          <mxGeometry width="50" height="50" relative="1" as="geometry">
            <mxPoint x="1250" y="20" as="sourcePoint" />
            <mxPoint x="1300" y="-30" as="targetPoint" />
          </mxGeometry>
        </mxCell>
        <mxCell id="5PhB07DHEPZl7AxQc1l3-18" value="Retrieve saved&lt;br&gt;user data to send to&lt;br&gt;server" style="ellipse;whiteSpace=wrap;html=1;" vertex="1" parent="1">
          <mxGeometry x="1275" y="30" width="120" height="80" as="geometry" />
        </mxCell>
        <mxCell id="5PhB07DHEPZl7AxQc1l3-21" value="User data in DB" style="ellipse;whiteSpace=wrap;html=1;" vertex="1" parent="1">
          <mxGeometry x="1410" y="-70" width="120" height="80" as="geometry" />
        </mxCell>
        <mxCell id="5PhB07DHEPZl7AxQc1l3-24" value="" style="endArrow=classic;html=1;rounded=0;" edge="1" parent="1" source="5PhB07DHEPZl7AxQc1l3-8" target="5PhB07DHEPZl7AxQc1l3-12">
          <mxGeometry width="50" height="50" relative="1" as="geometry">
            <mxPoint x="1250" y="-60" as="sourcePoint" />
            <mxPoint x="1300" y="-110" as="targetPoint" />
          </mxGeometry>
        </mxCell>
        <mxCell id="5PhB07DHEPZl7AxQc1l3-26" value="" style="endArrow=classic;html=1;rounded=0;" edge="1" parent="1" source="5PhB07DHEPZl7AxQc1l3-16" target="5PhB07DHEPZl7AxQc1l3-18">
          <mxGeometry width="50" height="50" relative="1" as="geometry">
            <mxPoint x="1360" y="20" as="sourcePoint" />
            <mxPoint x="1410" y="-30" as="targetPoint" />
          </mxGeometry>
        </mxCell>
        <mxCell id="5PhB07DHEPZl7AxQc1l3-27" value="" style="endArrow=classic;startArrow=classic;html=1;rounded=0;" edge="1" parent="1" source="5PhB07DHEPZl7AxQc1l3-18" target="5PhB07DHEPZl7AxQc1l3-21">
          <mxGeometry width="50" height="50" relative="1" as="geometry">
            <mxPoint x="1360" y="20" as="sourcePoint" />
            <mxPoint x="1410" y="-30" as="targetPoint" />
          </mxGeometry>
        </mxCell>
        <mxCell id="5PhB07DHEPZl7AxQc1l3-28" value="No saved user&amp;nbsp;&lt;br&gt;data" style="ellipse;whiteSpace=wrap;html=1;" vertex="1" parent="1">
          <mxGeometry x="1260" y="-80" width="120" height="80" as="geometry" />
        </mxCell>
        <mxCell id="5PhB07DHEPZl7AxQc1l3-29" value="" style="endArrow=classic;html=1;rounded=0;" edge="1" parent="1" source="5PhB07DHEPZl7AxQc1l3-18" target="5PhB07DHEPZl7AxQc1l3-28">
          <mxGeometry width="50" height="50" relative="1" as="geometry">
            <mxPoint x="1340" y="10" as="sourcePoint" />
            <mxPoint x="1390" y="-40" as="targetPoint" />
          </mxGeometry>
        </mxCell>
        <mxCell id="5PhB07DHEPZl7AxQc1l3-30" value="" style="endArrow=classic;html=1;rounded=0;" edge="1" parent="1" source="5PhB07DHEPZl7AxQc1l3-28" target="5PhB07DHEPZl7AxQc1l3-8">
          <mxGeometry width="50" height="50" relative="1" as="geometry">
            <mxPoint x="1340" y="10" as="sourcePoint" />
            <mxPoint x="1390" y="-40" as="targetPoint" />
          </mxGeometry>
        </mxCell>
        <mxCell id="5PhB07DHEPZl7AxQc1l3-33" value="Request Record" style="ellipse;whiteSpace=wrap;html=1;" vertex="1" parent="1">
          <mxGeometry x="1275" y="150" width="120" height="80" as="geometry" />
        </mxCell>
        <mxCell id="5PhB07DHEPZl7AxQc1l3-36" value="" style="endArrow=classic;html=1;rounded=0;" edge="1" parent="1" source="5PhB07DHEPZl7AxQc1l3-12" target="5PhB07DHEPZl7AxQc1l3-21">
          <mxGeometry width="50" height="50" relative="1" as="geometry">
            <mxPoint x="1310" y="80" as="sourcePoint" />
            <mxPoint x="1360" y="30" as="targetPoint" />
          </mxGeometry>
        </mxCell>
        <mxCell id="5PhB07DHEPZl7AxQc1l3-37" value="" style="endArrow=classic;html=1;rounded=0;" edge="1" parent="1" source="5PhB07DHEPZl7AxQc1l3-18" target="5PhB07DHEPZl7AxQc1l3-33">
          <mxGeometry width="50" height="50" relative="1" as="geometry">
            <mxPoint x="1310" y="80" as="sourcePoint" />
            <mxPoint x="1360" y="30" as="targetPoint" />
          </mxGeometry>
        </mxCell>
        <mxCell id="5PhB07DHEPZl7AxQc1l3-39" value="Retrieve Requests" style="ellipse;whiteSpace=wrap;html=1;" vertex="1" parent="1">
          <mxGeometry x="1410" y="30" width="120" height="80" as="geometry" />
        </mxCell>
        <mxCell id="5PhB07DHEPZl7AxQc1l3-40" value="" style="endArrow=none;html=1;rounded=0;" edge="1" parent="1" source="5PhB07DHEPZl7AxQc1l3-39" target="rVb7NmRtOqhLB956JAOC-29">
          <mxGeometry width="50" height="50" relative="1" as="geometry">
            <mxPoint x="1380" y="160" as="sourcePoint" />
            <mxPoint x="1430" y="110" as="targetPoint" />
          </mxGeometry>
        </mxCell>
        <mxCell id="5PhB07DHEPZl7AxQc1l3-42" value="" style="endArrow=classic;html=1;rounded=0;" edge="1" parent="1" source="5PhB07DHEPZl7AxQc1l3-33" target="5PhB07DHEPZl7AxQc1l3-39">
          <mxGeometry width="50" height="50" relative="1" as="geometry">
            <mxPoint x="1380" y="160" as="sourcePoint" />
            <mxPoint x="1430" y="110" as="targetPoint" />
          </mxGeometry>
        </mxCell>
        <mxCell id="5PhB07DHEPZl7AxQc1l3-43" value="Update Request&amp;nbsp;" style="ellipse;whiteSpace=wrap;html=1;" vertex="1" parent="1">
          <mxGeometry x="1410" y="120" width="120" height="80" as="geometry" />
        </mxCell>
        <mxCell id="5PhB07DHEPZl7AxQc1l3-44" value="" style="endArrow=none;html=1;rounded=0;" edge="1" parent="1" source="5PhB07DHEPZl7AxQc1l3-43" target="rVb7NmRtOqhLB956JAOC-29">
          <mxGeometry width="50" height="50" relative="1" as="geometry">
            <mxPoint x="1340" y="140" as="sourcePoint" />
            <mxPoint x="1390" y="90" as="targetPoint" />
          </mxGeometry>
        </mxCell>
        <mxCell id="5PhB07DHEPZl7AxQc1l3-45" value="" style="endArrow=classic;html=1;rounded=0;" edge="1" parent="1" source="5PhB07DHEPZl7AxQc1l3-43" target="5PhB07DHEPZl7AxQc1l3-33">
          <mxGeometry width="50" height="50" relative="1" as="geometry">
            <mxPoint x="1340" y="140" as="sourcePoint" />
            <mxPoint x="1390" y="90" as="targetPoint" />
          </mxGeometry>
        </mxCell>
        <mxCell id="5PhB07DHEPZl7AxQc1l3-46" value="Retrieve Requests" style="ellipse;whiteSpace=wrap;html=1;" vertex="1" parent="1">
          <mxGeometry x="1110" y="150" width="120" height="80" as="geometry" />
        </mxCell>
        <mxCell id="5PhB07DHEPZl7AxQc1l3-47" value="" style="endArrow=none;html=1;rounded=0;" edge="1" parent="1" source="5PhB07DHEPZl7AxQc1l3-2" target="5PhB07DHEPZl7AxQc1l3-46">
          <mxGeometry width="50" height="50" relative="1" as="geometry">
            <mxPoint x="1310" y="110" as="sourcePoint" />
            <mxPoint x="1360" y="60" as="targetPoint" />
          </mxGeometry>
        </mxCell>
        <mxCell id="5PhB07DHEPZl7AxQc1l3-48" value="" style="endArrow=classic;html=1;rounded=0;" edge="1" parent="1" source="5PhB07DHEPZl7AxQc1l3-33" target="5PhB07DHEPZl7AxQc1l3-46">
          <mxGeometry width="50" height="50" relative="1" as="geometry">
            <mxPoint x="1310" y="170" as="sourcePoint" />
            <mxPoint x="1360" y="120" as="targetPoint" />
          </mxGeometry>
        </mxCell>
        <mxCell id="5PhB07DHEPZl7AxQc1l3-49" value="Update Request&amp;nbsp;" style="ellipse;whiteSpace=wrap;html=1;" vertex="1" parent="1">
          <mxGeometry x="1110" y="240" width="120" height="80" as="geometry" />
        </mxCell>
        <mxCell id="5PhB07DHEPZl7AxQc1l3-50" value="" style="endArrow=classic;html=1;rounded=0;" edge="1" parent="1" source="5PhB07DHEPZl7AxQc1l3-49" target="5PhB07DHEPZl7AxQc1l3-33">
          <mxGeometry width="50" height="50" relative="1" as="geometry">
            <mxPoint x="1435.1434291035866" y="253.4344580128036" as="sourcePoint" />
            <mxPoint x="1389.8126425443347" y="226.59847170373428" as="targetPoint" />
          </mxGeometry>
        </mxCell>
        <mxCell id="5PhB07DHEPZl7AxQc1l3-51" value="" style="endArrow=none;html=1;rounded=0;" edge="1" parent="1" source="5PhB07DHEPZl7AxQc1l3-2" target="5PhB07DHEPZl7AxQc1l3-49">
          <mxGeometry width="50" height="50" relative="1" as="geometry">
            <mxPoint x="1310" y="110" as="sourcePoint" />
            <mxPoint x="1360" y="60" as="targetPoint" />
          </mxGeometry>
        </mxCell>
        <mxCell id="5PhB07DHEPZl7AxQc1l3-54" value="" style="endArrow=none;html=1;rounded=0;" edge="1" parent="1" source="5PhB07DHEPZl7AxQc1l3-2" target="5PhB07DHEPZl7AxQc1l3-8">
          <mxGeometry width="50" height="50" relative="1" as="geometry">
            <mxPoint x="1310" y="50" as="sourcePoint" />
            <mxPoint x="1360" as="targetPoint" />
          </mxGeometry>
        </mxCell>
        <mxCell id="5PhB07DHEPZl7AxQc1l3-55" value="" style="endArrow=none;html=1;rounded=0;" edge="1" parent="1" source="5PhB07DHEPZl7AxQc1l3-2" target="5PhB07DHEPZl7AxQc1l3-16">
          <mxGeometry width="50" height="50" relative="1" as="geometry">
            <mxPoint x="1310" y="50" as="sourcePoint" />
            <mxPoint x="1360" as="targetPoint" />
          </mxGeometry>
        </mxCell>
        <mxCell id="5PhB07DHEPZl7AxQc1l3-56" value="Prepare Database" style="ellipse;whiteSpace=wrap;html=1;" vertex="1" parent="1">
          <mxGeometry x="1370" y="240" width="120" height="80" as="geometry" />
        </mxCell>
        <mxCell id="5PhB07DHEPZl7AxQc1l3-57" value="Backend&lt;br&gt;Service" style="shape=umlActor;verticalLabelPosition=bottom;verticalAlign=top;html=1;outlineConnect=0;" vertex="1" parent="1">
          <mxGeometry x="1640" y="250" width="30" height="60" as="geometry" />
        </mxCell>
        <mxCell id="5PhB07DHEPZl7AxQc1l3-58" value="" style="endArrow=none;html=1;rounded=0;" edge="1" parent="1" source="5PhB07DHEPZl7AxQc1l3-56" target="5PhB07DHEPZl7AxQc1l3-57">
          <mxGeometry width="50" height="50" relative="1" as="geometry">
            <mxPoint x="1430" y="130" as="sourcePoint" />
            <mxPoint x="1480" y="80" as="targetPoint" />
          </mxGeometry>
        </mxCell>
        <mxCell id="5PhB07DHEPZl7AxQc1l3-59" value="&lt;font style=&quot;font-size: 10px;&quot;&gt;&amp;lt;&amp;lt;include&amp;gt;&amp;gt;&lt;/font&gt;" style="text;html=1;strokeColor=none;fillColor=none;align=center;verticalAlign=middle;whiteSpace=wrap;rounded=0;rotation=20;" vertex="1" parent="1">
          <mxGeometry x="1240" y="10" width="60" height="30" as="geometry" />
        </mxCell>
        <mxCell id="5PhB07DHEPZl7AxQc1l3-60" value="&lt;h1&gt;Use Case Diagram&lt;/h1&gt;&lt;p&gt;A use case diagram is a graphical depiction of a user&#39;s possible interactions with a system. A use case diagram shows various use cases and different types of users the system has and will often be accompanied by other types of diagrams as well. The use cases are represented by either circles or ellipses&lt;br&gt;&lt;/p&gt;" style="text;html=1;strokeColor=none;fillColor=none;spacing=5;spacingTop=-20;whiteSpace=wrap;overflow=hidden;rounded=0;fontSize=10;" vertex="1" parent="1">
          <mxGeometry x="800" y="-15" width="220" height="145" as="geometry" />
        </mxCell>
        <mxCell id="5PhB07DHEPZl7AxQc1l3-61" value="User" style="swimlane;fontStyle=1;align=center;verticalAlign=top;childLayout=stackLayout;horizontal=1;startSize=26;horizontalStack=0;resizeParent=1;resizeParentMax=0;resizeLast=0;collapsible=1;marginBottom=0;fontSize=10;" vertex="1" parent="1">
          <mxGeometry x="190" y="990" width="160" height="184" as="geometry">
            <mxRectangle x="340" y="530" width="60" height="30" as="alternateBounds" />
          </mxGeometry>
        </mxCell>
        <mxCell id="5PhB07DHEPZl7AxQc1l3-62" value="+ Name: str" style="text;strokeColor=none;fillColor=none;align=left;verticalAlign=top;spacingLeft=4;spacingRight=4;overflow=hidden;rotatable=0;points=[[0,0.5],[1,0.5]];portConstraint=eastwest;fontSize=10;" vertex="1" parent="5PhB07DHEPZl7AxQc1l3-61">
          <mxGeometry y="26" width="160" height="24" as="geometry" />
        </mxCell>
        <mxCell id="5PhB07DHEPZl7AxQc1l3-68" value="+ Address: Location" style="text;strokeColor=none;fillColor=none;align=left;verticalAlign=top;spacingLeft=4;spacingRight=4;overflow=hidden;rotatable=0;points=[[0,0.5],[1,0.5]];portConstraint=eastwest;fontSize=10;" vertex="1" parent="5PhB07DHEPZl7AxQc1l3-61">
          <mxGeometry y="50" width="160" height="24" as="geometry" />
        </mxCell>
        <mxCell id="5PhB07DHEPZl7AxQc1l3-67" value="+ Picture: img" style="text;strokeColor=none;fillColor=none;align=left;verticalAlign=top;spacingLeft=4;spacingRight=4;overflow=hidden;rotatable=0;points=[[0,0.5],[1,0.5]];portConstraint=eastwest;fontSize=10;" vertex="1" parent="5PhB07DHEPZl7AxQc1l3-61">
          <mxGeometry y="74" width="160" height="24" as="geometry" />
        </mxCell>
        <mxCell id="5PhB07DHEPZl7AxQc1l3-63" value="" style="line;strokeWidth=1;fillColor=none;align=left;verticalAlign=middle;spacingTop=-1;spacingLeft=3;spacingRight=3;rotatable=0;labelPosition=right;points=[];portConstraint=eastwest;fontSize=10;" vertex="1" parent="5PhB07DHEPZl7AxQc1l3-61">
          <mxGeometry y="98" width="160" height="8" as="geometry" />
        </mxCell>
        <mxCell id="5PhB07DHEPZl7AxQc1l3-64" value="+ updateInformation()" style="text;strokeColor=none;fillColor=none;align=left;verticalAlign=top;spacingLeft=4;spacingRight=4;overflow=hidden;rotatable=0;points=[[0,0.5],[1,0.5]];portConstraint=eastwest;fontSize=10;" vertex="1" parent="5PhB07DHEPZl7AxQc1l3-61">
          <mxGeometry y="106" width="160" height="26" as="geometry" />
        </mxCell>
        <mxCell id="5PhB07DHEPZl7AxQc1l3-70" value="+ sendRequest()" style="text;strokeColor=none;fillColor=none;align=left;verticalAlign=top;spacingLeft=4;spacingRight=4;overflow=hidden;rotatable=0;points=[[0,0.5],[1,0.5]];portConstraint=eastwest;fontSize=10;" vertex="1" parent="5PhB07DHEPZl7AxQc1l3-61">
          <mxGeometry y="132" width="160" height="26" as="geometry" />
        </mxCell>
        <mxCell id="5PhB07DHEPZl7AxQc1l3-69" value="+ deleteAccount()" style="text;strokeColor=none;fillColor=none;align=left;verticalAlign=top;spacingLeft=4;spacingRight=4;overflow=hidden;rotatable=0;points=[[0,0.5],[1,0.5]];portConstraint=eastwest;fontSize=10;" vertex="1" parent="5PhB07DHEPZl7AxQc1l3-61">
          <mxGeometry y="158" width="160" height="26" as="geometry" />
        </mxCell>
        <mxCell id="5PhB07DHEPZl7AxQc1l3-71" value="Location" style="swimlane;fontStyle=1;align=center;verticalAlign=top;childLayout=stackLayout;horizontal=1;startSize=26;horizontalStack=0;resizeParent=1;resizeParentMax=0;resizeLast=0;collapsible=1;marginBottom=0;fontSize=10;" vertex="1" parent="1">
          <mxGeometry x="330" y="740" width="160" height="182" as="geometry">
            <mxRectangle x="340" y="530" width="60" height="30" as="alternateBounds" />
          </mxGeometry>
        </mxCell>
        <mxCell id="5PhB07DHEPZl7AxQc1l3-72" value="+ Street: str" style="text;strokeColor=none;fillColor=none;align=left;verticalAlign=top;spacingLeft=4;spacingRight=4;overflow=hidden;rotatable=0;points=[[0,0.5],[1,0.5]];portConstraint=eastwest;fontSize=10;" vertex="1" parent="5PhB07DHEPZl7AxQc1l3-71">
          <mxGeometry y="26" width="160" height="24" as="geometry" />
        </mxCell>
        <mxCell id="5PhB07DHEPZl7AxQc1l3-73" value="+ Barangay: str" style="text;strokeColor=none;fillColor=none;align=left;verticalAlign=top;spacingLeft=4;spacingRight=4;overflow=hidden;rotatable=0;points=[[0,0.5],[1,0.5]];portConstraint=eastwest;fontSize=10;" vertex="1" parent="5PhB07DHEPZl7AxQc1l3-71">
          <mxGeometry y="50" width="160" height="24" as="geometry" />
        </mxCell>
        <mxCell id="5PhB07DHEPZl7AxQc1l3-74" value="+ City: str" style="text;strokeColor=none;fillColor=none;align=left;verticalAlign=top;spacingLeft=4;spacingRight=4;overflow=hidden;rotatable=0;points=[[0,0.5],[1,0.5]];portConstraint=eastwest;fontSize=10;" vertex="1" parent="5PhB07DHEPZl7AxQc1l3-71">
          <mxGeometry y="74" width="160" height="24" as="geometry" />
        </mxCell>
        <mxCell id="5PhB07DHEPZl7AxQc1l3-82" value="+ Region: str" style="text;strokeColor=none;fillColor=none;align=left;verticalAlign=top;spacingLeft=4;spacingRight=4;overflow=hidden;rotatable=0;points=[[0,0.5],[1,0.5]];portConstraint=eastwest;fontSize=10;" vertex="1" parent="5PhB07DHEPZl7AxQc1l3-71">
          <mxGeometry y="98" width="160" height="24" as="geometry" />
        </mxCell>
        <mxCell id="5PhB07DHEPZl7AxQc1l3-75" value="" style="line;strokeWidth=1;fillColor=none;align=left;verticalAlign=middle;spacingTop=-1;spacingLeft=3;spacingRight=3;rotatable=0;labelPosition=right;points=[];portConstraint=eastwest;fontSize=10;" vertex="1" parent="5PhB07DHEPZl7AxQc1l3-71">
          <mxGeometry y="122" width="160" height="8" as="geometry" />
        </mxCell>
        <mxCell id="5PhB07DHEPZl7AxQc1l3-76" value="+ validate(): bool" style="text;strokeColor=none;fillColor=none;align=left;verticalAlign=top;spacingLeft=4;spacingRight=4;overflow=hidden;rotatable=0;points=[[0,0.5],[1,0.5]];portConstraint=eastwest;fontSize=10;" vertex="1" parent="5PhB07DHEPZl7AxQc1l3-71">
          <mxGeometry y="130" width="160" height="26" as="geometry" />
        </mxCell>
        <mxCell id="5PhB07DHEPZl7AxQc1l3-77" value="+ getLocation(): str" style="text;strokeColor=none;fillColor=none;align=left;verticalAlign=top;spacingLeft=4;spacingRight=4;overflow=hidden;rotatable=0;points=[[0,0.5],[1,0.5]];portConstraint=eastwest;fontSize=10;" vertex="1" parent="5PhB07DHEPZl7AxQc1l3-71">
          <mxGeometry y="156" width="160" height="26" as="geometry" />
        </mxCell>
        <mxCell id="5PhB07DHEPZl7AxQc1l3-80" value="" style="endArrow=classic;html=1;rounded=0;fontSize=10;exitX=1.002;exitY=0.381;exitDx=0;exitDy=0;exitPerimeter=0;entryX=0.5;entryY=1;entryDx=0;entryDy=0;" edge="1" parent="1" source="5PhB07DHEPZl7AxQc1l3-68" target="5PhB07DHEPZl7AxQc1l3-71">
          <mxGeometry relative="1" as="geometry">
            <mxPoint x="550" y="550" as="sourcePoint" />
            <mxPoint x="610" y="720" as="targetPoint" />
            <Array as="points">
              <mxPoint x="410" y="1050" />
            </Array>
          </mxGeometry>
        </mxCell>
        <mxCell id="5PhB07DHEPZl7AxQc1l3-81" value="Located At" style="edgeLabel;resizable=0;html=1;align=center;verticalAlign=middle;fontSize=10;" connectable="0" vertex="1" parent="5PhB07DHEPZl7AxQc1l3-80">
          <mxGeometry relative="1" as="geometry" />
        </mxCell>
        <mxCell id="5PhB07DHEPZl7AxQc1l3-83" value="Request" style="swimlane;fontStyle=1;align=center;verticalAlign=top;childLayout=stackLayout;horizontal=1;startSize=26;horizontalStack=0;resizeParent=1;resizeParentMax=0;resizeLast=0;collapsible=1;marginBottom=0;fontSize=10;" vertex="1" parent="1">
          <mxGeometry x="340" y="1220" width="160" height="182" as="geometry">
            <mxRectangle x="340" y="530" width="60" height="30" as="alternateBounds" />
          </mxGeometry>
        </mxCell>
        <mxCell id="5PhB07DHEPZl7AxQc1l3-84" value="+ User: User" style="text;strokeColor=none;fillColor=none;align=left;verticalAlign=top;spacingLeft=4;spacingRight=4;overflow=hidden;rotatable=0;points=[[0,0.5],[1,0.5]];portConstraint=eastwest;fontSize=10;" vertex="1" parent="5PhB07DHEPZl7AxQc1l3-83">
          <mxGeometry y="26" width="160" height="24" as="geometry" />
        </mxCell>
        <mxCell id="5PhB07DHEPZl7AxQc1l3-86" value="+ Assignee: Rescuer" style="text;strokeColor=none;fillColor=none;align=left;verticalAlign=top;spacingLeft=4;spacingRight=4;overflow=hidden;rotatable=0;points=[[0,0.5],[1,0.5]];portConstraint=eastwest;fontSize=10;" vertex="1" parent="5PhB07DHEPZl7AxQc1l3-83">
          <mxGeometry y="50" width="160" height="24" as="geometry" />
        </mxCell>
        <mxCell id="5PhB07DHEPZl7AxQc1l3-101" value="+ Type: str" style="text;strokeColor=none;fillColor=none;align=left;verticalAlign=top;spacingLeft=4;spacingRight=4;overflow=hidden;rotatable=0;points=[[0,0.5],[1,0.5]];portConstraint=eastwest;fontSize=10;" vertex="1" parent="5PhB07DHEPZl7AxQc1l3-83">
          <mxGeometry y="74" width="160" height="24" as="geometry" />
        </mxCell>
        <mxCell id="5PhB07DHEPZl7AxQc1l3-85" value="+ Status: str" style="text;strokeColor=none;fillColor=none;align=left;verticalAlign=top;spacingLeft=4;spacingRight=4;overflow=hidden;rotatable=0;points=[[0,0.5],[1,0.5]];portConstraint=eastwest;fontSize=10;" vertex="1" parent="5PhB07DHEPZl7AxQc1l3-83">
          <mxGeometry y="98" width="160" height="24" as="geometry" />
        </mxCell>
        <mxCell id="5PhB07DHEPZl7AxQc1l3-87" value="" style="line;strokeWidth=1;fillColor=none;align=left;verticalAlign=middle;spacingTop=-1;spacingLeft=3;spacingRight=3;rotatable=0;labelPosition=right;points=[];portConstraint=eastwest;fontSize=10;" vertex="1" parent="5PhB07DHEPZl7AxQc1l3-83">
          <mxGeometry y="122" width="160" height="8" as="geometry" />
        </mxCell>
        <mxCell id="5PhB07DHEPZl7AxQc1l3-88" value="+ updateRecord(): str" style="text;strokeColor=none;fillColor=none;align=left;verticalAlign=top;spacingLeft=4;spacingRight=4;overflow=hidden;rotatable=0;points=[[0,0.5],[1,0.5]];portConstraint=eastwest;fontSize=10;" vertex="1" parent="5PhB07DHEPZl7AxQc1l3-83">
          <mxGeometry y="130" width="160" height="26" as="geometry" />
        </mxCell>
        <mxCell id="5PhB07DHEPZl7AxQc1l3-89" value="+ getInformation(): str" style="text;strokeColor=none;fillColor=none;align=left;verticalAlign=top;spacingLeft=4;spacingRight=4;overflow=hidden;rotatable=0;points=[[0,0.5],[1,0.5]];portConstraint=eastwest;fontSize=10;" vertex="1" parent="5PhB07DHEPZl7AxQc1l3-83">
          <mxGeometry y="156" width="160" height="26" as="geometry" />
        </mxCell>
        <mxCell id="5PhB07DHEPZl7AxQc1l3-91" value="Rescuer" style="swimlane;fontStyle=1;align=center;verticalAlign=top;childLayout=stackLayout;horizontal=1;startSize=26;horizontalStack=0;resizeParent=1;resizeParentMax=0;resizeLast=0;collapsible=1;marginBottom=0;fontSize=10;" vertex="1" parent="1">
          <mxGeometry x="480" y="990" width="160" height="184" as="geometry">
            <mxRectangle x="340" y="530" width="60" height="30" as="alternateBounds" />
          </mxGeometry>
        </mxCell>
        <mxCell id="5PhB07DHEPZl7AxQc1l3-92" value="+ Name: str" style="text;strokeColor=none;fillColor=none;align=left;verticalAlign=top;spacingLeft=4;spacingRight=4;overflow=hidden;rotatable=0;points=[[0,0.5],[1,0.5]];portConstraint=eastwest;fontSize=10;" vertex="1" parent="5PhB07DHEPZl7AxQc1l3-91">
          <mxGeometry y="26" width="160" height="24" as="geometry" />
        </mxCell>
        <mxCell id="5PhB07DHEPZl7AxQc1l3-93" value="+ Address: Location" style="text;strokeColor=none;fillColor=none;align=left;verticalAlign=top;spacingLeft=4;spacingRight=4;overflow=hidden;rotatable=0;points=[[0,0.5],[1,0.5]];portConstraint=eastwest;fontSize=10;" vertex="1" parent="5PhB07DHEPZl7AxQc1l3-91">
          <mxGeometry y="50" width="160" height="24" as="geometry" />
        </mxCell>
        <mxCell id="5PhB07DHEPZl7AxQc1l3-94" value="+ Picture: img" style="text;strokeColor=none;fillColor=none;align=left;verticalAlign=top;spacingLeft=4;spacingRight=4;overflow=hidden;rotatable=0;points=[[0,0.5],[1,0.5]];portConstraint=eastwest;fontSize=10;" vertex="1" parent="5PhB07DHEPZl7AxQc1l3-91">
          <mxGeometry y="74" width="160" height="24" as="geometry" />
        </mxCell>
        <mxCell id="5PhB07DHEPZl7AxQc1l3-95" value="" style="line;strokeWidth=1;fillColor=none;align=left;verticalAlign=middle;spacingTop=-1;spacingLeft=3;spacingRight=3;rotatable=0;labelPosition=right;points=[];portConstraint=eastwest;fontSize=10;" vertex="1" parent="5PhB07DHEPZl7AxQc1l3-91">
          <mxGeometry y="98" width="160" height="8" as="geometry" />
        </mxCell>
        <mxCell id="5PhB07DHEPZl7AxQc1l3-96" value="+ updateInformation()" style="text;strokeColor=none;fillColor=none;align=left;verticalAlign=top;spacingLeft=4;spacingRight=4;overflow=hidden;rotatable=0;points=[[0,0.5],[1,0.5]];portConstraint=eastwest;fontSize=10;" vertex="1" parent="5PhB07DHEPZl7AxQc1l3-91">
          <mxGeometry y="106" width="160" height="26" as="geometry" />
        </mxCell>
        <mxCell id="5PhB07DHEPZl7AxQc1l3-97" value="+ updateRequest()" style="text;strokeColor=none;fillColor=none;align=left;verticalAlign=top;spacingLeft=4;spacingRight=4;overflow=hidden;rotatable=0;points=[[0,0.5],[1,0.5]];portConstraint=eastwest;fontSize=10;" vertex="1" parent="5PhB07DHEPZl7AxQc1l3-91">
          <mxGeometry y="132" width="160" height="26" as="geometry" />
        </mxCell>
        <mxCell id="5PhB07DHEPZl7AxQc1l3-98" value="+ deleteAccount()" style="text;strokeColor=none;fillColor=none;align=left;verticalAlign=top;spacingLeft=4;spacingRight=4;overflow=hidden;rotatable=0;points=[[0,0.5],[1,0.5]];portConstraint=eastwest;fontSize=10;" vertex="1" parent="5PhB07DHEPZl7AxQc1l3-91">
          <mxGeometry y="158" width="160" height="26" as="geometry" />
        </mxCell>
        <mxCell id="5PhB07DHEPZl7AxQc1l3-99" value="" style="endArrow=classic;html=1;rounded=0;fontSize=10;exitX=-0.001;exitY=0.398;exitDx=0;exitDy=0;exitPerimeter=0;" edge="1" parent="1" source="5PhB07DHEPZl7AxQc1l3-93">
          <mxGeometry relative="1" as="geometry">
            <mxPoint x="360.31999999999994" y="569.1440000000002" as="sourcePoint" />
            <mxPoint x="410" y="920" as="targetPoint" />
            <Array as="points">
              <mxPoint x="410" y="1050" />
            </Array>
          </mxGeometry>
        </mxCell>
        <mxCell id="5PhB07DHEPZl7AxQc1l3-100" value="Located At" style="edgeLabel;resizable=0;html=1;align=center;verticalAlign=middle;fontSize=10;" connectable="0" vertex="1" parent="5PhB07DHEPZl7AxQc1l3-99">
          <mxGeometry relative="1" as="geometry" />
        </mxCell>
        <mxCell id="5PhB07DHEPZl7AxQc1l3-102" value="" style="endArrow=classic;html=1;rounded=0;fontSize=10;exitX=0;exitY=0.5;exitDx=0;exitDy=0;" edge="1" parent="1" source="5PhB07DHEPZl7AxQc1l3-84" target="5PhB07DHEPZl7AxQc1l3-61">
          <mxGeometry width="50" height="50" relative="1" as="geometry">
            <mxPoint x="380" y="1140" as="sourcePoint" />
            <mxPoint x="430" y="1090" as="targetPoint" />
            <Array as="points">
              <mxPoint x="270" y="1258" />
            </Array>
          </mxGeometry>
        </mxCell>
        <mxCell id="5PhB07DHEPZl7AxQc1l3-103" value="" style="endArrow=classic;html=1;rounded=0;fontSize=10;exitX=1;exitY=0.5;exitDx=0;exitDy=0;" edge="1" parent="1" source="5PhB07DHEPZl7AxQc1l3-86" target="5PhB07DHEPZl7AxQc1l3-91">
          <mxGeometry width="50" height="50" relative="1" as="geometry">
            <mxPoint x="380" y="1140" as="sourcePoint" />
            <mxPoint x="430" y="1090" as="targetPoint" />
            <Array as="points">
              <mxPoint x="560" y="1280" />
            </Array>
          </mxGeometry>
        </mxCell>
        <mxCell id="5PhB07DHEPZl7AxQc1l3-104" value="" style="endArrow=classic;html=1;rounded=0;fontSize=10;exitX=1;exitY=0.5;exitDx=0;exitDy=0;entryX=0.312;entryY=-0.007;entryDx=0;entryDy=0;entryPerimeter=0;" edge="1" parent="1" source="5PhB07DHEPZl7AxQc1l3-70" target="5PhB07DHEPZl7AxQc1l3-83">
          <mxGeometry relative="1" as="geometry">
            <mxPoint x="400" y="1190" as="sourcePoint" />
            <mxPoint x="500" y="1190" as="targetPoint" />
            <Array as="points">
              <mxPoint x="390" y="1135" />
            </Array>
          </mxGeometry>
        </mxCell>
        <mxCell id="5PhB07DHEPZl7AxQc1l3-105" value="Creates" style="edgeLabel;resizable=0;html=1;align=center;verticalAlign=middle;fontSize=10;" connectable="0" vertex="1" parent="5PhB07DHEPZl7AxQc1l3-104">
          <mxGeometry relative="1" as="geometry" />
        </mxCell>
        <mxCell id="5PhB07DHEPZl7AxQc1l3-106" value="" style="endArrow=classic;html=1;rounded=0;fontSize=10;exitX=0;exitY=0.5;exitDx=0;exitDy=0;entryX=0.622;entryY=-0.006;entryDx=0;entryDy=0;entryPerimeter=0;" edge="1" parent="1" source="5PhB07DHEPZl7AxQc1l3-97" target="5PhB07DHEPZl7AxQc1l3-83">
          <mxGeometry relative="1" as="geometry">
            <mxPoint x="270" y="1140" as="sourcePoint" />
            <mxPoint x="370" y="1140" as="targetPoint" />
            <Array as="points">
              <mxPoint x="440" y="1135" />
            </Array>
          </mxGeometry>
        </mxCell>
        <mxCell id="5PhB07DHEPZl7AxQc1l3-107" value="Modifies" style="edgeLabel;resizable=0;html=1;align=center;verticalAlign=middle;fontSize=10;" connectable="0" vertex="1" parent="5PhB07DHEPZl7AxQc1l3-106">
          <mxGeometry relative="1" as="geometry" />
        </mxCell>
        <mxCell id="5PhB07DHEPZl7AxQc1l3-108" value="Authority" style="swimlane;fontStyle=1;align=center;verticalAlign=top;childLayout=stackLayout;horizontal=1;startSize=26;horizontalStack=0;resizeParent=1;resizeParentMax=0;resizeLast=0;collapsible=1;marginBottom=0;fontSize=10;" vertex="1" parent="1">
          <mxGeometry x="600" y="1220" width="160" height="184" as="geometry">
            <mxRectangle x="340" y="530" width="60" height="30" as="alternateBounds" />
          </mxGeometry>
        </mxCell>
        <mxCell id="5PhB07DHEPZl7AxQc1l3-109" value="+ Name: str" style="text;strokeColor=none;fillColor=none;align=left;verticalAlign=top;spacingLeft=4;spacingRight=4;overflow=hidden;rotatable=0;points=[[0,0.5],[1,0.5]];portConstraint=eastwest;fontSize=10;" vertex="1" parent="5PhB07DHEPZl7AxQc1l3-108">
          <mxGeometry y="26" width="160" height="24" as="geometry" />
        </mxCell>
        <mxCell id="5PhB07DHEPZl7AxQc1l3-111" value="+ Person In Charge: Rescuer" style="text;strokeColor=none;fillColor=none;align=left;verticalAlign=top;spacingLeft=4;spacingRight=4;overflow=hidden;rotatable=0;points=[[0,0.5],[1,0.5]];portConstraint=eastwest;fontSize=10;" vertex="1" parent="5PhB07DHEPZl7AxQc1l3-108">
          <mxGeometry y="50" width="160" height="24" as="geometry" />
        </mxCell>
        <mxCell id="5PhB07DHEPZl7AxQc1l3-110" value="+ Municipality: Location" style="text;strokeColor=none;fillColor=none;align=left;verticalAlign=top;spacingLeft=4;spacingRight=4;overflow=hidden;rotatable=0;points=[[0,0.5],[1,0.5]];portConstraint=eastwest;fontSize=10;" vertex="1" parent="5PhB07DHEPZl7AxQc1l3-108">
          <mxGeometry y="74" width="160" height="24" as="geometry" />
        </mxCell>
        <mxCell id="5PhB07DHEPZl7AxQc1l3-112" value="" style="line;strokeWidth=1;fillColor=none;align=left;verticalAlign=middle;spacingTop=-1;spacingLeft=3;spacingRight=3;rotatable=0;labelPosition=right;points=[];portConstraint=eastwest;fontSize=10;" vertex="1" parent="5PhB07DHEPZl7AxQc1l3-108">
          <mxGeometry y="98" width="160" height="8" as="geometry" />
        </mxCell>
        <mxCell id="5PhB07DHEPZl7AxQc1l3-113" value="+ updateInformation()" style="text;strokeColor=none;fillColor=none;align=left;verticalAlign=top;spacingLeft=4;spacingRight=4;overflow=hidden;rotatable=0;points=[[0,0.5],[1,0.5]];portConstraint=eastwest;fontSize=10;" vertex="1" parent="5PhB07DHEPZl7AxQc1l3-108">
          <mxGeometry y="106" width="160" height="26" as="geometry" />
        </mxCell>
        <mxCell id="5PhB07DHEPZl7AxQc1l3-114" value="+ updateRequest()" style="text;strokeColor=none;fillColor=none;align=left;verticalAlign=top;spacingLeft=4;spacingRight=4;overflow=hidden;rotatable=0;points=[[0,0.5],[1,0.5]];portConstraint=eastwest;fontSize=10;" vertex="1" parent="5PhB07DHEPZl7AxQc1l3-108">
          <mxGeometry y="132" width="160" height="26" as="geometry" />
        </mxCell>
        <mxCell id="5PhB07DHEPZl7AxQc1l3-115" value="+ deleteAccount()" style="text;strokeColor=none;fillColor=none;align=left;verticalAlign=top;spacingLeft=4;spacingRight=4;overflow=hidden;rotatable=0;points=[[0,0.5],[1,0.5]];portConstraint=eastwest;fontSize=10;" vertex="1" parent="5PhB07DHEPZl7AxQc1l3-108">
          <mxGeometry y="158" width="160" height="26" as="geometry" />
        </mxCell>
        <mxCell id="5PhB07DHEPZl7AxQc1l3-116" value="" style="endArrow=classic;html=1;rounded=0;fontSize=10;exitX=0;exitY=0.5;exitDx=0;exitDy=0;" edge="1" parent="1" source="5PhB07DHEPZl7AxQc1l3-114" target="5PhB07DHEPZl7AxQc1l3-83">
          <mxGeometry relative="1" as="geometry">
            <mxPoint x="260" y="1170" as="sourcePoint" />
            <mxPoint x="360" y="1170" as="targetPoint" />
          </mxGeometry>
        </mxCell>
        <mxCell id="5PhB07DHEPZl7AxQc1l3-117" value="Modifies" style="edgeLabel;resizable=0;html=1;align=center;verticalAlign=middle;fontSize=10;" connectable="0" vertex="1" parent="5PhB07DHEPZl7AxQc1l3-116">
          <mxGeometry relative="1" as="geometry" />
        </mxCell>
        <mxCell id="5PhB07DHEPZl7AxQc1l3-118" value="" style="endArrow=classic;html=1;rounded=0;fontSize=10;exitX=1;exitY=0.411;exitDx=0;exitDy=0;exitPerimeter=0;entryX=1.008;entryY=0.445;entryDx=0;entryDy=0;entryPerimeter=0;" edge="1" parent="1" source="5PhB07DHEPZl7AxQc1l3-111" target="5PhB07DHEPZl7AxQc1l3-98">
          <mxGeometry width="50" height="50" relative="1" as="geometry">
            <mxPoint x="570" y="1210" as="sourcePoint" />
            <mxPoint x="660" y="1150" as="targetPoint" />
            <Array as="points">
              <mxPoint x="780" y="1280" />
              <mxPoint x="780" y="1160" />
            </Array>
          </mxGeometry>
        </mxCell>
        <mxCell id="5PhB07DHEPZl7AxQc1l3-119" value="" style="endArrow=classic;html=1;rounded=0;fontSize=10;exitX=1;exitY=0.5;exitDx=0;exitDy=0;entryX=1.009;entryY=0.159;entryDx=0;entryDy=0;entryPerimeter=0;" edge="1" parent="1" source="5PhB07DHEPZl7AxQc1l3-110" target="5PhB07DHEPZl7AxQc1l3-77">
          <mxGeometry width="50" height="50" relative="1" as="geometry">
            <mxPoint x="700" y="1150" as="sourcePoint" />
            <mxPoint x="750" y="1100" as="targetPoint" />
            <Array as="points">
              <mxPoint x="800" y="1306" />
              <mxPoint x="800" y="900" />
            </Array>
          </mxGeometry>
        </mxCell>
        <mxCell id="5PhB07DHEPZl7AxQc1l3-120" value="&lt;h1&gt;Class Diagram&lt;/h1&gt;&lt;p&gt;In software engineering, a class diagram in the Unified Modeling Language is a type of static structure diagram that describes the structure of a system by showing the system&#39;s classes, their attributes, operations, and the relationships among objects.&lt;br&gt;&lt;/p&gt;" style="text;html=1;strokeColor=none;fillColor=none;spacing=5;spacingTop=-20;whiteSpace=wrap;overflow=hidden;rounded=0;fontSize=10;" vertex="1" parent="1">
          <mxGeometry x="80" y="740" width="200" height="130" as="geometry" />
        </mxCell>
      </root>
    </mxGraphModel>
  </diagram>
</mxfile>
